<svg xmlns="http://www.w3.org/2000/svg" version="1.1" xmlns:xlink="http://www.w3.org/1999/xlink" xmlns:svgjs="http://svgjs.com/svgjs" x="0" y="0" viewBox="0 0 512 512" style="enable-background:new 0 0 512 512; color:#C4836E" xml:space="preserve" class=""><g><g xmlns="http://www.w3.org/2000/svg"><g><path d="m255.995 458.445c-39.453 0-71.551-32.102-71.551-71.561 0-8.836 7.163-16 16-16h111.109c8.837 0 16 7.164 16 16 .001 39.459-32.1 71.561-71.558 71.561zm-36.171-55.56c6.155 13.865 20.053 23.561 36.171 23.561 16.121 0 30.021-9.695 36.178-23.561z" fill="currentColor" data-original="#000000"/></g><g><path d="m436.935 402.885c-.005 0-.012 0-.02 0h-361.83c-8.837 0-16-7.164-16-16 0-35.011 21.083-65.962 52.58-79.133v-111.357c0-38.155 14.858-74.025 41.837-101.003 26.978-26.979 62.845-41.836 100.993-41.836h3.01c37.596 0 74.406 15.249 100.993 41.837 26.979 26.978 41.837 62.848 41.837 101.003v111.357c31.229 13.06 52.221 43.595 52.575 78.239.017.296.024.594.024.895.001 8.834-7.163 15.998-15.999 15.998zm-343.432-32h324.994c-5.435-17.515-19.603-31.453-38.093-36.14-7.099-1.799-12.069-8.187-12.069-15.51v-122.84c0-29.607-11.529-57.442-32.464-78.375-20.631-20.632-49.194-32.464-78.366-32.464h-3.01c-29.602 0-57.432 11.529-78.365 32.464-20.936 20.934-32.465 48.769-32.465 78.376v122.841c0 7.323-4.971 13.711-12.069 15.51-18.491 4.684-32.658 18.623-38.093 36.138z" fill="currentColor" data-original="#000000"/></g></g></g></svg>