<svg xmlns="http://www.w3.org/2000/svg" version="1.1" xmlns:xlink="http://www.w3.org/1999/xlink" xmlns:svgjs="http://svgjs.com/svgjs" x="0" y="0" viewBox="0 0 512 512" style="enable-background:new 0 0 512 512; color:#fff" xml:space="preserve"><g><g id="_x33_5_Sold_Out"><g><path d="m500.756 194.438-10.234-133.037c-1.649-21.488-18.439-38.278-39.922-39.927l-133.046-10.233c-12.689-.947-25.035 3.612-33.998 12.575l-259.728 259.727c-16.916 16.916-16.983 44.361 0 61.345l143.28 143.28c16.918 16.918 44.362 16.983 61.345 0l259.727-259.727c8.964-8.962 13.547-21.358 12.576-34.003zm-19.789 26.789-259.728 259.727c-12.939 12.934-33.988 12.934-46.917 0l-143.28-143.28c-12.934-12.934-12.934-33.983 0-46.917l259.728-259.727c6.771-6.771 16.191-10.361 25.997-9.615l133.052 10.233c16.431 1.26 29.27 14.099 30.53 30.535l10.233 133.042c.743 9.671-2.76 19.147-9.615 26.002z" fill="currentColor" data-original="#000000"/><path d="m138.97 301.095c-5.505 0-10.677 2.142-14.563 6.033l-3.966 3.966c-4.055 4.045-10.642 4.045-14.697 0-4.05-4.055-4.05-10.647 0-14.697l12.854-12.854c1.993-1.993 1.993-5.221 0-7.214s-5.221-1.993-7.214 0l-12.854 12.854c-8.026 8.026-8.026 21.089 0 29.125 8.031 8.036 21.104 8.026 29.125 0l3.966-3.966c3.926-3.926 10.771-3.926 14.697 0 4.05 4.05 4.05 10.642 0 14.692l-14.921 14.921c-1.993 1.993-1.993 5.221 0 7.214s5.221 1.993 7.214 0l14.921-14.921c3.891-3.886 6.028-9.057 6.028-14.563 0-5.5-2.137-10.672-6.028-14.558-3.89-3.889-9.062-6.032-14.562-6.032z" fill="currentColor" data-original="#000000"/><path d="m196.264 260.108-17.627-17.632c-9.207-9.217-24.203-9.217-33.41 0-9.225 9.225-9.243 24.173 0 33.405l17.632 17.632c9.225 9.225 24.173 9.243 33.405 0 9.225-9.225 9.243-24.173 0-33.405zm-7.214 26.191c-5.072 5.077-13.91 5.072-18.977 0l-17.632-17.632c-5.242-5.243-5.248-13.729 0-18.977 5.227-5.227 13.74-5.242 18.982 0l17.627 17.632c5.243 5.242 5.248 13.729 0 18.977z" fill="currentColor" data-original="#000000"/><path d="m263.408 219.155c1.993 1.993 5.221 1.993 7.214 0l9.117-9.117c14.069-14.069 14.069-36.967 0-51.037-14.069-14.069-36.967-14.069-51.037 0l-9.117 9.117c-1.993 1.993-1.993 5.221 0 7.214zm-27.491-52.94c10.094-10.094 26.515-10.094 36.609 0s10.094 26.515 0 36.609l-5.51 5.51-36.609-36.609z" fill="currentColor" data-original="#000000"/><path d="m223.412 259.156c1.993 1.993 5.222 1.992 7.214 0l22.415-22.419c1.993-1.993 1.993-5.221 0-7.214s-5.221-1.993-7.214 0l-18.807 18.812-40.216-40.211c-1.993-1.993-5.221-1.993-7.214 0s-1.993 5.221 0 7.214z" fill="currentColor" data-original="#000000"/><path d="m228.404 339.219c-9.217-9.207-24.203-9.207-33.41 0-9.212 9.212-9.212 24.198 0 33.41l17.632 17.632c9.202 9.202 24.179 9.226 33.405 0 9.212-9.212 9.212-24.198 0-33.41zm10.412 43.827c-5.226 5.226-13.741 5.236-18.977 0l-17.632-17.632c-5.231-5.231-5.231-13.751 0-18.982 5.225-5.225 13.751-5.231 18.982 0l17.627 17.632c5.232 5.232 5.232 13.751 0 18.982z" fill="currentColor" data-original="#000000"/><path d="m260.638 280.793c-1.993-1.993-5.221-1.993-7.214 0s-1.993 5.221 0 7.214l30.725 30.725c5.231 5.231 5.231 13.751 0 18.982-5.072 5.067-13.905 5.077-18.977 0l-30.73-30.73c-1.993-1.993-5.221-1.993-7.214 0s-1.993 5.221 0 7.214l30.73 30.73c9.221 9.232 24.168 9.237 33.405 0 9.212-9.212 9.212-24.198 0-33.41z" fill="currentColor" data-original="#000000"/><path d="m298.078 250.566 11.938-11.936c1.993-1.993 1.993-5.221 0-7.214s-5.221-1.993-7.214 0l-31.088 31.083c-1.993 1.993-1.993 5.221 0 7.214s5.221 1.993 7.214 0l11.936-11.934 40.217 40.217c1.993 1.993 5.221 1.993 7.214 0s1.993-5.221 0-7.214z" fill="currentColor" data-original="#000000"/><path d="m388.917 81.377c-11.58 11.581-11.58 30.186-.063 41.703s30.186 11.58 41.766 0c11.517-11.517 11.454-30.186-.063-41.703-11.518-11.517-30.123-11.517-41.64 0z" fill="currentColor" data-original="#000000"/></g></g></g></svg>