<svg xmlns="http://www.w3.org/2000/svg" version="1.1" xmlns:xlink="http://www.w3.org/1999/xlink" xmlns:svgjs="http://svgjs.com/svgjs" x="0" y="0" viewBox="0 0 512 512" style="enable-background:new 0 0 512 512" xml:space="preserve"><g><g xmlns="http://www.w3.org/2000/svg"><path d="m412.891 223.678c-4.142 0-7.5 3.358-7.5 7.5v34.124c0 2.132-.621 4.624-5.228 6.944-1.441.725-3.012 1.073-4.817 1.075-1.938-.003-3.613-.473-5.123-1.438-3.603-2.301-4.326-4.211-4.326-6.546v-34.16c0-4.142-3.357-7.5-7.5-7.5s-7.5 3.358-7.5 7.5v34.16c0 7.962 3.785 14.417 11.25 19.186 3.933 2.513 8.366 3.79 13.179 3.797h.038c4.133 0 8.018-.901 11.547-2.678 8.693-4.379 13.481-11.603 13.481-20.341v-34.124c-.001-4.141-3.359-7.499-7.501-7.499z" fill="#fff" data-original="#fff"/><path d="m468.716 223.678h-27.416c-4.143 0-7.5 3.358-7.5 7.5s3.357 7.5 7.5 7.5h6.152v42.143c0 4.142 3.357 7.5 7.5 7.5 4.142 0 7.5-3.358 7.5-7.5v-42.143h6.264c4.143 0 7.5-3.358 7.5-7.5s-3.358-7.5-7.5-7.5z" fill="#fff" data-original="#fff"/><path d="m324.706 223.678c-17.822 0-32.322 14.499-32.322 32.322s14.5 32.322 32.322 32.322 32.321-14.499 32.321-32.322-14.499-32.322-32.321-32.322zm0 49.644c-9.552 0-17.322-7.771-17.322-17.322s7.771-17.322 17.322-17.322 17.321 7.771 17.321 17.322-7.77 17.322-17.321 17.322z" fill="#fff" data-original="#fff"/><path d="m197.568 273.28c-3.348.019-6.875.033-9.842.039v-42.14c0-4.142-3.357-7.5-7.5-7.5s-7.5 3.358-7.5 7.5v49.601c0 3.654 2.633 6.776 6.234 7.392.538.092.895.154 6.452.154 2.675 0 6.556-.014 12.239-.046 4.142-.023 7.481-3.4 7.458-7.542-.022-4.143-3.372-7.504-7.541-7.458z" fill="#fff" data-original="#fff"/><path d="m239.334 224.413h-13.644c-1.991 0-3.901.792-5.309 2.202-1.406 1.41-2.195 3.321-2.191 5.312v.034.001 47.342c0 .457.047.902.126 1.336.133 1.796.902 3.493 2.188 4.77 1.405 1.395 3.305 2.177 5.284 2.177h.028c.413-.002 10.151-.039 14.048-.107 15.311-.267 26.425-13.507 26.425-31.48 0-18.893-10.832-31.587-26.955-31.587zm.268 48.069c-1.488.026-3.924.048-6.34.065-.017-5.564-.037-12.81-.037-16.6 0-3.182-.012-10.735-.021-16.534h6.13c11.093 0 11.955 12.696 11.955 16.587 0 8.103-3.613 16.341-11.687 16.482z" fill="#fff" data-original="#fff"/><path d="m67.491 249.355c-5.871-2.166-11.353-4.519-13.267-5.354-.691-.641-.7-1.468-.633-1.939.091-.63.568-2.177 3.041-2.922 6.297-1.896 12.267 2.761 12.471 2.924 3.17 2.62 7.866 2.2 10.52-.956 2.665-3.171 2.256-7.902-.915-10.567-.491-.412-12.183-10.048-26.401-5.763-7.342 2.211-12.538 8.018-13.562 15.153-.965 6.726 1.952 13.197 7.613 16.887.331.216 8.204 3.755 15.942 6.61 3.008 1.109 6.08 3.088 5.682 5.316-.329 1.846-2.908 4.578-7.397 4.578-4.575 0-8.964-1.83-11.741-4.895-2.781-3.069-7.524-3.303-10.594-.522-3.069 2.781-3.303 7.524-.521 10.594 5.656 6.242 13.987 9.823 22.856 9.823 11.09 0 20.411-7.125 22.164-16.941 1.327-7.438-1.983-17.13-15.258-22.026z" fill="#fff" data-original="#fff"/><path d="m126.377 223.678c-17.822 0-32.322 14.499-32.322 32.322s14.5 32.322 32.322 32.322 32.321-14.499 32.321-32.322-14.499-32.322-32.321-32.322zm0 49.644c-9.552 0-17.322-7.771-17.322-17.322s7.771-17.322 17.322-17.322 17.321 7.771 17.321 17.322-7.77 17.322-17.321 17.322z" fill="#fff" data-original="#fff"/><path d="m492.17 175.676h-63.944c-14.988-32.088-38.566-59.31-68.29-78.767-30.904-20.228-66.844-30.92-103.936-30.92-24.11 0-47.607 4.457-69.84 13.248-3.852 1.523-5.74 5.88-4.217 9.732 1.523 3.853 5.883 5.739 9.732 4.217 20.469-8.093 42.11-12.197 64.324-12.197 34.166 0 67.266 9.845 95.721 28.471 25.403 16.629 45.925 39.415 59.786 66.216h-41.951c-.199-.425-.436-.839-.721-1.233-26.138-36.103-68.319-57.657-112.834-57.657-45.116 0-87.624 22.014-113.716 58.89h-41.815c14.857-28.748 37.249-52.702 65.097-69.544 3.545-2.144 4.681-6.755 2.537-10.299-2.146-3.545-6.759-4.679-10.299-2.536-32.304 19.536-57.848 47.89-73.871 81.995-.06.127-.105.256-.158.384h-63.945c-10.935 0-19.83 8.896-19.83 19.83v120.987c0 10.934 8.896 19.83 19.83 19.83h64.008c.103.327.221.652.372.97 15.191 32.048 39.005 59.177 68.867 78.454 30.668 19.798 66.259 30.263 102.923 30.263 37.096 0 73.039-10.694 103.944-30.927 29.721-19.457 53.295-46.676 68.282-78.761h63.944c10.935 0 19.83-8.896 19.83-19.83v-120.985c0-10.935-8.896-19.831-19.83-19.831zm-236.17-43.889c36.501 0 71.235 16.253 94.728 43.89h-189.471c23.495-27.661 58.157-43.89 94.743-43.89zm95.728 270.748c-28.456 18.629-61.559 28.476-95.728 28.476-33.773 0-66.549-9.636-94.787-27.865-25.804-16.658-46.703-39.675-60.745-66.823h42.003c.208.466.466.918.778 1.347 26.142 36.031 68.292 57.542 112.751 57.542 44.52 0 86.704-21.558 112.842-57.667.283-.391.519-.801.716-1.223h41.949c-13.86 26.8-34.379 49.584-59.779 66.213zm145.272-86.042c0 2.663-2.167 4.83-4.83 4.83h-179.684c-4.142 0-7.5 3.358-7.5 7.5s3.358 7.5 7.5 7.5h38.243c-23.494 27.636-58.228 43.89-94.729 43.89-36.494 0-71.236-16.255-94.729-43.89h121.215c4.143 0 7.5-3.358 7.5-7.5s-3.357-7.5-7.5-7.5h-262.656c-2.663 0-4.83-2.167-4.83-4.83v-120.986c0-2.663 2.167-4.83 4.83-4.83h472.34c2.663 0 4.83 2.167 4.83 4.83z" fill="#fff" data-original="#fff"/></g></g></svg>