<svg xmlns="http://www.w3.org/2000/svg" version="1.1" xmlns:xlink="http://www.w3.org/1999/xlink" xmlns:svgjs="http://svgjs.com/svgjs" x="0" y="0" viewBox="0 0 512 512" style="enable-background:new 0 0 512 512; color:#fff" xml:space="preserve"><g><g><path d="m478.5 257.1h-31.7v-18.5c0-17.8-18.4-29.9-34.8-22.4l-127-144.1c4.1-5.8 6.6-12.9 6.6-20.6 0-19.7-15.9-35.7-35.7-35.7s-35.7 15.9-35.7 35.7c0 7.7 2.4 14.8 6.6 20.6l-127 144.1c-16.4-7.4-34.8 4.7-34.8 22.4v18.5h-31.5c-15.7.1-28.5 12.8-28.5 28.5v182c0 15.7 12.8 28.5 28.5 28.5h445c15.7 0 28.5-12.8 28.5-28.5v-182c0-15.7-12.8-28.5-28.5-28.5zm-367.2-30.3 127.1-144.2c10.8 6.1 24.1 6.3 35.1 0l127.1 144.2c-5 9.1-2.5 15.2-3.2 30.3h-283c-.6-15.3 1.9-21.3-3.1-30.3zm380.2 240.8c0 7.1-5.8 12.9-12.9 12.9h-445c-7.1 0-12.9-5.8-12.9-12.9v-182c0-7.1 5.8-12.9 12.9-12.9h445c7.1 0 12.9 5.8 12.9 12.9z" fill="currentColor" data-original="#000000"/></g><g><path d="m62.3 351.6h21.8c4.3 0 7.8-3.5 7.8-7.8s-3.5-7.8-7.8-7.8h-21.8c-13.3 0-24.1 10.8-24.1 24.1s10.8 24.1 24.1 24.1h5.4c4.8 0 8.6 3.9 8.6 8.6s-3.9 8.6-8.6 8.6h-21.8c-4.3 0-7.8 3.5-7.8 7.8s3.5 7.8 7.8 7.8h21.8c13.3 0 24.1-10.8 24.1-24.1s-10.8-24.1-24.1-24.1h-5.4c-4.8 0-8.6-3.9-8.6-8.6 0-4.8 3.9-8.6 8.6-8.6z" fill="currentColor" data-original="#000000"/><path d="m122.9 336c-14.7 0-26.6 11.9-26.6 26.6v27.9c0 14.7 11.9 26.6 26.6 26.6s26.6-11.9 26.6-26.6v-27.9c0-14.6-11.9-26.6-26.6-26.6zm11.1 54.5c0 6.1-5 11.1-11.1 11.1s-11.1-5-11.1-11.1v-27.9c0-6.1 5-11.1 11.1-11.1s11.1 5 11.1 11.1z" fill="currentColor" data-original="#000000"/><path d="m198.3 401.7h-25.6v-57.9c0-4.3-3.5-7.8-7.8-7.8s-7.8 3.5-7.8 7.8v65.6c0 4.3 3.5 7.8 7.8 7.8h33.4c4.3 0 7.8-3.5 7.8-7.8s-3.5-7.7-7.8-7.7z" fill="currentColor" data-original="#000000"/><path d="m232.6 336h-13.9c-4.3 0-7.8 3.5-7.8 7.8v65.6c0 2.1.8 4 2.3 5.5s3.4 2.3 5.5 2.3h13.9c22.4 0 40.5-18.2 40.5-40.6.1-22.4-18.1-40.6-40.5-40.6zm0 65.7h-6.2v-50.1h6.2c13.8 0 25.1 11.2 25.1 25.1 0 13.7-11.2 24.9-25.1 25z" fill="currentColor" data-original="#000000"/><path d="m322.6 336c-14.7 0-26.6 11.9-26.6 26.6v27.9c0 14.7 11.9 26.6 26.6 26.6s26.6-11.9 26.6-26.6v-27.9c0-14.6-11.9-26.6-26.6-26.6zm11.1 54.5c0 6.1-5 11.1-11.1 11.1s-11.1-5-11.1-11.1v-27.9c0-6.1 5-11.1 11.1-11.1s11.1 5 11.1 11.1z" fill="currentColor" data-original="#000000"/><path d="m402.2 336c-4.3 0-7.8 3.5-7.8 7.8v46.8c0 6.1-5 11.1-11.1 11.1s-11.1-5-11.1-11.1v-46.8c0-4.3-3.5-7.8-7.8-7.8s-7.8 3.5-7.8 7.8v46.8c0 14.7 11.9 26.6 26.6 26.6s26.6-11.9 26.6-26.6v-46.8c.1-4.3-3.3-7.8-7.6-7.8z" fill="currentColor" data-original="#000000"/><path d="m466.1 336h-43.4c-4.3 0-7.8 3.5-7.8 7.8s3.5 7.8 7.8 7.8h13.9v57.9c0 4.3 3.5 7.8 7.8 7.8s7.8-3.5 7.8-7.8v-57.9h13.9c4.3 0 7.8-3.5 7.8-7.8s-3.6-7.8-7.8-7.8z" fill="currentColor" data-original="#000000"/></g></g></svg>